<!DOCTYPE svg PUBLIC "-//W3C//DTD SVG 1.1//EN" "http://www.w3.org/Graphics/SVG/1.1/DTD/svg11.dtd">
<!-- Uploaded to: SVG Repo, www.svgrepo.com, Transformed by: SVG Repo Mixer Tools -->
<svg fill="#ffffff" version="1.1" id="Layer_1" xmlns="http://www.w3.org/2000/svg" xmlns:xlink="http://www.w3.org/1999/xlink" viewBox="0 0 496 496" xml:space="preserve" width="800px" height="800px" stroke="#ffffff">
<g id="SVGRepo_bgCarrier" stroke-width="0"/>
<g id="SVGRepo_tracerCarrier" stroke-linecap="round" stroke-linejoin="round"/>
<g id="SVGRepo_iconCarrier"> <g> <g> <g> <path d="M384.304,409.28c-6.04-2-12.712-1.416-18.28,1.632l-17.552,9.592l2.424-7.192c2.28-6.768,1.16-14.28-3.016-20.08 c-4.168-5.8-10.92-9.264-18.064-9.264c-9.152,0-17.256,5.488-20.656,13.992l-10.4,26.008h-24.688l-0.44-0.216l17.304-9.192 c10.416-5.528,15.488-17.72,12.064-29c-1.968-6.512-6.4-11.792-12.472-14.872c-6.08-3.08-12.944-3.52-19.368-1.28l-65.632,23.016 l-23.776,15.552h-53.576V392H0v104h128.168v-14.272l30.432,6.088l106.36,0.16l80.784-16.16l41.456-20.152 c11.168-5.512,15.888-18.72,10.76-30.072C395.32,415.784,390.344,411.304,384.304,409.28z M112.168,480H16v-72h64v56h16v-56 h16.168V480z M324.016,403.896c1.704-4.28,8.168-5.064,10.864-1.328c1.184,1.656,1.504,3.704,0.848,5.64l-5.304,15.76h-14.44 L324.016,403.896z M380.12,437.312l-38.544,19.016l-78.184,15.64H160.96l-32.792-6.56v-41.44h58.424l25.176-16.784l64.68-22.688 c2.272-0.784,4.688-0.64,6.832,0.456c2.144,1.088,3.704,2.952,4.4,5.248c1.2,3.976-0.576,8.272-4.256,10.224l-44.704,23.76 l31.56,15.784h75.936l27.48-15.016c1.728-0.952,3.696-1.112,5.536-0.496c1.856,0.624,3.336,1.952,4.144,3.728 C384.936,431.632,383.504,435.64,380.12,437.312z"/> <path d="M330.664,24h-21.328L280,46V0H168v48h16v70l-40,30v20h24v184h304V168h24v-20L330.664,24z M184,16h80v16h-80V16z M277.336,48L264,58V48H277.336z M248,48v22l-48,36V48H248z M360,336h-80V216h80V336z M456,336h-80V200H264v136h-80V168h272V336z M165.336,152L314.664,40h10.672l149.328,112H165.336z"/> <path d="M280,104c0,22.056,17.944,40,40,40c22.056,0,40-17.944,40-40c0-22.056-17.944-40-40-40C297.944,64,280,81.944,280,104z M344,104c0,13.232-10.768,24-24,24s-24-10.768-24-24s10.768-24,24-24S344,90.768,344,104z"/> <rect x="328" y="264" width="16" height="16"/> </g> </g> </g> </g>
</svg>