<!DOCTYPE svg PUBLIC "-//W3C//DTD SVG 1.1//EN" "http://www.w3.org/Graphics/SVG/1.1/DTD/svg11.dtd">
<!-- Uploaded to: SVG Repo, www.svgrepo.com, Transformed by: SVG Repo Mixer Tools -->
<svg fill="#ffffff" height="800px" width="800px" version="1.1" id="Layer_1" xmlns="http://www.w3.org/2000/svg" xmlns:xlink="http://www.w3.org/1999/xlink" viewBox="0 0 496 496" xml:space="preserve" stroke="#ffffff">
<g id="SVGRepo_bgCarrier" stroke-width="0"/>
<g id="SVGRepo_tracerCarrier" stroke-linecap="round" stroke-linejoin="round"/>
<g id="SVGRepo_iconCarrier"> <g> <g> <g> <path d="M258.592,40h-21.184L184,78.672V48h16V0H40v48h16v123.36L0,211.912V232h40v264h416V232h40v-20.088L258.592,40z M56,16 h128v16H56V16z M168,48v42.256l-96,69.52V48H168z M440,480H56V232h384V480z M448,216h-8H56h-8H21.64L242.592,56h10.816 L474.36,216H448z"/> <path d="M184,144c0,35.288,28.712,64,64,64c35.288,0,64-28.712,64-64c0-35.288-28.712-64-64-64C212.712,80,184,108.712,184,144z M296,144c0,26.472-21.528,48-48,48s-48-21.528-48-48s21.528-48,48-48S296,117.528,296,144z"/> <path d="M328,352h-16v-40c0-35.288-28.712-64-64-64c-35.288,0-64,28.712-64,64v40h-16v112h160V352z M200,312 c0-26.472,21.528-48,48-48s48,21.528,48,48v40h-96V312z M312,384h-16v16h16v16h-16v16h16v16H184v-16h16v-16h-16v-16h16v-16h-16 v-16h128V384z"/> <path d="M248,432c13.232,0,24-10.768,24-24s-10.768-24-24-24s-24,10.768-24,24S234.768,432,248,432z M248,400 c4.408,0,8,3.592,8,8c0,4.408-3.592,8-8,8s-8-3.592-8-8C240,403.592,243.592,400,248,400z"/> </g> </g> </g> </g>
</svg>