<!DOCTYPE svg PUBLIC "-//W3C//DTD SVG 1.1//EN" "http://www.w3.org/Graphics/SVG/1.1/DTD/svg11.dtd">
<!-- Uploaded to: SVG Repo, www.svgrepo.com, Transformed by: SVG Repo Mixer Tools -->
<svg version="1.1" id="Icons" xmlns="http://www.w3.org/2000/svg" xmlns:xlink="http://www.w3.org/1999/xlink" viewBox="0 0 32 32" xml:space="preserve" width="800px" height="800px" fill="#000000">
<g id="SVGRepo_bgCarrier" stroke-width="0"/>
<g id="SVGRepo_tracerCarrier" stroke-linecap="round" stroke-linejoin="round"/>
<g id="SVGRepo_iconCarrier"> <style type="text/css"> .st0{fill:none;stroke:#015fc9;stroke-width:2;stroke-linecap:round;stroke-linejoin:round;stroke-miterlimit:10;} </style> <path class="st0" d="M16,3c-1.8,1.7-5.8,3.1-11,3.8V13c0,4.3,1.9,8.4,5.2,11.2L16,29l5.8-4.8C25.1,21.4,27,17.3,27,13V6.8 C21.8,6.1,17.8,4.7,16,3z"/> <line class="st0" x1="16" y1="11" x2="16" y2="12"/> <line class="st0" x1="16" y1="18" x2="16" y2="19"/> <path class="st0" d="M17,12h-1.5c-0.8,0-1.5,0.7-1.5,1.5v0c0,0.8,0.7,1.5,1.5,1.5h1c0.8,0,1.5,0.7,1.5,1.5v0c0,0.8-0.7,1.5-1.5,1.5 H15"/> <circle class="st0" cx="16" cy="15" r="7"/> </g>
</svg>